<svg width="900" height="900" xmlns="http://www.w3.org/2000/svg">

 <g>
  <title>Layer 1</title>
  <path id="svg_5" d="m444.9397,388.29606c-37.01129,0 -67.00141,29.56942 -67.00141,66.06151c0,36.47516 29.99013,66.06151 67.00141,66.06151c8.48032,0 16.51431,-1.72643 23.9818,-4.56997l14.35131,21.74969l23.32947,-14.97936l-14.26548,-21.59736c12.10248,-11.94964 19.60431,-28.45232 19.60431,-46.66451c0,-36.49209 -29.99013,-66.06151 -67.00141,-66.06151zm-0.2575,-178.80447c-137.79665,0 -249.50001,110.13638 -249.50001,246.00001c0,135.86364 111.70335,246.00001 249.50001,246.00001c137.79665,0 249.50001,-110.13638 249.50001,-246.00001c0,-135.86364 -111.70335,-246.00001 -249.50001,-246.00001zm174.65344,327.39633c-4.13716,8.53062 -8.80649,16.75657 -14.17965,24.54245l-54.21226,-11.49264c-8.25716,8.90299 -17.66448,16.82427 -28.0503,23.44227l2.04283,54.19651c-8.70349,3.89294 -17.64731,7.12577 -26.93447,9.64772l-33.56079,-42.55154c-6.38599,0.86322 -12.87498,1.45562 -19.50131,1.45562c-6.11133,0 -12.11965,-0.49085 -18.04214,-1.25251l-33.38912,42.31457c-9.28715,-2.5558 -18.28248,-5.78863 -26.95163,-9.6308l2.0085,-53.24866c-10.88365,-6.73648 -20.73731,-14.89473 -29.3893,-24.15316l-52.77026,11.1372c-5.37316,-7.71818 -10.00815,-15.97798 -14.17965,-24.5086l35.84395,-39.08174c-3.87966,-11.89886 -6.07699,-24.55938 -6.60916,-37.62612l-47.51727,-24.77942c0.94417,-9.52924 2.8325,-18.73689 5.16716,-27.80914l52.94193,-7.22733c4.97833,-11.88193 11.58748,-22.88372 19.48414,-32.86996l-20.29097,-49.10183c6.84949,-6.58415 14.24831,-12.59282 22.0248,-18.11064l45.71477,28.29999c11.15832,-5.704 23.1578,-10.03702 35.79245,-12.69437l16.61731,-50.79442c4.77233,-0.35544 9.52749,-0.71088 14.36848,-0.71088c4.84099,0 9.61332,0.37237 14.36848,0.71088l16.75464,51.25141c12.35998,2.75891 24.05047,7.04115 34.95129,12.69437l46.41861,-28.72313c7.81082,5.51782 15.22681,11.52649 22.05914,18.11064l-20.87464,50.54053c7.34732,9.54617 13.61315,19.98941 18.33398,31.22816l54.67576,7.46429c2.3175,9.05532 4.24016,18.29682 5.18433,27.80914l-49.21677,25.65956c-0.58367,12.28815 -2.575,24.20394 -6.09416,35.54424l37.01129,40.31733z" stroke="#000" fill="#00ffbf"/>
  <path id="svg_9" d="m457.79487,123.56411" opacity="NaN" stroke="#000" fill="#00ffbf"/>
  <g transform="rotate(42 454.333 136.564)" stroke="null">
   <path stroke="null" d="m548.75689,56.38185c-8.44743,5.50231 -17.40869,11.17403 -22.11675,13.51354c-11.76805,5.89443 -13.74032,20.35527 -8.66885,20.97274c2.00777,0.24488 8.68269,-2.81079 16.39729,-6.85335c17.78534,-9.32004 45.08126,-24.97149 56.2717,-40.28307c2.54446,-3.4805 4.09075,-6.90507 3.85911,-9.96759c-0.17629,-2.34584 -1.67685,-4.06789 -4.97279,-4.9429c-23.82249,-8.02864 -44.77742,-16.80986 -61.86843,-26.60435c-1.45604,-0.71035 -2.77911,-0.89453 -3.98907,-0.63488c-4.039,0.86551 -7.57261,8.25769 -8.69833,11.39304c-1.6209,4.51384 -1.01381,7.17211 3.11665,9.67786c8.13156,4.93234 17.4478,8.56484 26.80195,12.09125c-67.33158,3.80349 -122.75192,28.91852 -162.40613,66.88952c-43.8707,42.00881 -68.39172,99.73292 -68.33878,161.68324c0.00301,3.54806 0.34776,5.53978 2.45541,7.02592c1.90368,1.34154 4.29712,1.43125 8.49436,1.23915c6.50705,-0.29712 10.12549,-1.38429 12.52013,-4.85265c2.04688,-2.96595 2.5595,-7.29191 3.05648,-14.47193c0.14681,-2.11786 0.37183,-4.23413 0.53188,-6.35251c3.94153,-52.02126 27.29592,-100.02793 66.24437,-134.74958c35.24337,-31.41847 83.29266,-51.96954 141.3098,-54.77347z" fill="#007fff"/>
  </g>
  <g transform="rotate(151 696.295 571.064)" stroke="null">
   <path stroke="null" d="m805.71955,492.90749c-9.78948,5.36331 -20.17442,10.89175 -25.63046,13.17216c-13.63764,5.74552 -15.92325,19.84105 -10.04607,20.44292c2.32675,0.23869 10.06211,-2.73978 19.00234,-6.68022c20.61091,-9.0846 52.24335,-24.34066 65.21163,-39.26543c2.9487,-3.39258 4.74065,-6.73063 4.4722,-9.71579c-0.2043,-2.28658 -1.94325,-3.96512 -5.76283,-4.81803c-27.60718,-7.82582 -51.89124,-16.3852 -71.69751,-25.93226c-1.68736,-0.6924 -3.22063,-0.87194 -4.62281,-0.61884c-4.68068,0.84364 -8.77567,8.04908 -10.08024,11.10523c-1.87841,4.39981 -1.17488,6.99092 3.61179,9.43337c9.42342,4.80774 20.21975,8.34847 31.06,11.7858c-78.0286,3.7074 -142.25361,28.18798 -188.20771,65.19975c-50.84047,40.94757 -79.25717,97.21345 -79.19581,157.59878c0.00349,3.45842 0.40301,5.39983 2.8455,6.84843c2.20612,1.30765 4.97981,1.3951 9.84387,1.20785c7.54083,-0.28962 11.73413,-1.34932 14.50921,-4.73006c2.37207,-2.89102 2.96613,-7.1077 3.54206,-14.10634c0.17013,-2.06435 0.4309,-4.12717 0.61637,-6.19203c4.56773,-50.70709 31.63244,-97.50101 76.76866,-131.34552c40.84251,-30.62477 96.52543,-50.65668 163.7598,-53.38977z" fill="#007fff"/>
  </g>
  <ellipse stroke="#000" ry="113" rx="112" id="svg_26" cy="261.0641" cx="204.83333" fill="#191919"/>
  <ellipse stroke="#000" ry="113" rx="112" id="svg_27" cy="260.0641" cx="688.29487" fill="#191919"/>
  <ellipse stroke="#000" ry="113.5" rx="111.50001" id="svg_28" cy="751.06411" cx="442.29488" fill="#191919"/>
  <g transform="rotate(-77 197.333 566.564)" stroke="null">
   <path stroke="null" d="m306.65846,489.09592c-9.78057,5.31606 -20.15605,10.7958 -25.60711,13.05612c-13.62522,5.69491 -15.90875,19.66627 -10.03692,20.26284c2.32463,0.23659 10.05294,-2.71565 18.98503,-6.62137c20.59213,-9.00457 52.19576,-24.12624 65.15222,-38.91954c2.94601,-3.36269 4.73633,-6.67134 4.46813,-9.6302c-0.20411,-2.26644 -1.94148,-3.9302 -5.75758,-4.77559c-27.58203,-7.75688 -51.84397,-16.24087 -71.6322,-25.70383c-1.68582,-0.68631 -3.21769,-0.86426 -4.6186,-0.61339c-4.67642,0.83621 -8.76768,7.97817 -10.07106,11.0074c-1.8767,4.36105 -1.17381,6.92934 3.6085,9.35028c9.41484,4.76539 20.20133,8.27493 31.0317,11.68198c-77.95752,3.67474 -142.12402,27.93967 -188.03626,64.62541c-50.79416,40.58687 -79.18497,96.3571 -79.12366,156.21049c0.00348,3.42796 0.40265,5.35227 2.84291,6.7881c2.20411,1.29613 4.97527,1.38281 9.8349,1.19721c7.53396,-0.28707 11.72344,-1.33743 14.496,-4.68839c2.36991,-2.86556 2.96343,-7.04508 3.53884,-13.98207c0.16998,-2.04617 0.43051,-4.09081 0.61581,-6.13749c4.56357,-50.26041 31.60363,-96.64212 76.69872,-130.18849c40.8053,-30.355 96.43749,-50.21044 163.61062,-52.91946z" fill="#007fff"/>
  </g>
  <text font-style="normal" font-weight="bold" xml:space="preserve" text-anchor="start" font-family="serif" font-size="155" stroke-width="0" id="svg_35" y="284.56411" x="159.33333" stroke="#000" fill="#00ffbf">μ</text>
  <text font-style="normal" font-weight="bold" xml:space="preserve" text-anchor="start" font-family="serif" font-size="155" stroke-width="0" id="svg_36" y="290.56411" x="645.79487" stroke="#000" fill="#00ffbf">σ</text>
  <text font-style="normal" font-weight="bold" xml:space="preserve" text-anchor="start" font-family="serif" font-size="155" stroke-width="0" id="svg_37" y="788.56411" x="395.79487" stroke="#000" fill="#00ffbf">α</text>
  <line id="svg_39" y2="113.07645" x2="-580.76837" y1="113.07645" x1="-583.84529" stroke="#000" fill="none"/>
 </g>
</svg>